<svg xmlns="http://www.w3.org/2000/svg" xmlns:xlink="http://www.w3.org/1999/xlink" xmlns:a="http://ns.adobe.com/AdobeSVGViewerExtensions/3.0/" version="1.1" x="0px" y="0px" width="100px" height="100px" viewBox="-15.807 -3.267 100 100" enable-background="new -15.807 -3.267 100 100" xml:space="preserve">
<defs>
</defs>
<path d="M37.313,48.076c-0.188,0.135-0.425,0.188-0.692,0.178c0.223,0.291,0.441,0.598,0.637,0.929  c0.205-0.353,0.438-0.677,0.682-0.982c-0.234,0.007-0.449-0.029-0.621-0.125C37.315,48.076,37.315,48.076,37.313,48.076z"/>
<path d="M33.319,42.819c-0.695,0.532-0.364,2.099,0.738,3.5c1.103,1.405,2.557,2.107,3.252,1.578c0-0.002,0-0.002,0.001-0.004  c0.718,0.438,2.1-0.245,3.158-1.593c0.724-0.919,1.099-1.909,1.079-2.628c0-0.014,0.01-0.026,0.01-0.038  c0-0.022-0.017-0.044-0.019-0.065c-0.03-0.32-0.135-0.588-0.347-0.749c-0.165-0.126-0.377-0.179-0.611-0.173  c-0.781-0.353-1.955-0.583-3.287-0.583c-1.336,0-2.512,0.231-3.295,0.586C33.733,42.629,33.5,42.681,33.319,42.819z"/>
<ellipse cx="32.956" cy="37.315" rx="1.633" ry="2.345"/>
<ellipse cx="41.109" cy="37.315" rx="1.632" ry="2.345"/>
<path d="M74.25,54.738H60.346c-0.672-14.373-9.577-25.949-20.85-27.317c2.816-1.888,6.714-6.53,9.96-12.125  c0.711-1.221,1.336-2.408,1.893-3.549c1.954,2.394,4.689,3.725,6.881,3.116c2.833-0.789,3.682-4.509,1.896-8.309  c-1.545-3.294-4.562-5.564-7.184-5.599c-0.014-0.003-0.024-0.011-0.039-0.014c-0.307-0.044-0.66,0.006-1.05,0.14  c-0.029,0.007-0.059,0.009-0.086,0.017c-0.57,0.159-1.056,0.441-1.46,0.814c-2.807,1.93-6.648,6.523-9.859,12.053  c-1.902,3.276-3.268,6.336-4.004,8.786c-0.449-2.478-1.443-5.589-2.938-8.947c-2.545-5.721-5.83-10.551-8.4-12.66  c-0.358-0.399-0.809-0.711-1.356-0.907c-0.028-0.011-0.057-0.014-0.085-0.023c-0.373-0.16-0.719-0.233-1.029-0.209  c-0.015,0.001-0.026,0.009-0.041,0.011c-2.614-0.139-5.887,1.921-7.816,5.099c-2.226,3.668-1.818,7.429,0.908,8.402  c2.112,0.753,4.994-0.391,7.221-2.645c0.418,1.174,0.902,2.396,1.464,3.66c2.771,6.227,6.418,11.4,9.063,13.154  C22.922,29.892,14.81,41.043,14.167,54.738H0v4.746h8.799v31.75c0,1.231,12.716,2.232,28.402,2.232  c15.688,0,28.404-1.001,28.404-2.232v-31.75h8.645V54.738z M52.1,2.034c1.934-0.538,4.749,1.679,6.286,4.95  c1.539,3.272,1.213,6.361-0.717,6.899c-1.935,0.537-4.747-1.678-6.283-4.949C49.845,5.662,50.167,2.572,52.1,2.034z M23.204,8.065  c-1.915,3.156-4.98,5.177-6.841,4.513c-1.862-0.665-1.819-3.762,0.098-6.919c1.917-3.158,4.981-5.178,6.843-4.515  C25.167,1.81,25.123,4.908,23.204,8.065z M64.382,80.628H9.673v-8.095h54.709V80.628z M42.7,14.919  c2.333-4.428,4.815-8.131,6.244-9.431c-0.007,0.892,0.158,1.856,0.499,2.849c-0.65,1.837-1.742,4.276-3.149,6.945  c-2.94,5.587-6.128,10.036-7.125,9.937C38.178,25.119,39.758,20.508,42.7,14.919z M27.525,14.728  c-1.086-2.752-1.884-5.253-2.317-7.128c0.457-0.964,0.735-1.916,0.835-2.803c1.268,1.39,3.305,5.243,5.107,9.809  c2.271,5.762,3.302,10.459,2.301,10.494C32.45,25.132,29.797,20.488,27.525,14.728z M37.256,28.49  c12.063,0,21.863,11.703,22.103,26.249H49.211c-0.021-0.461-0.047-0.919-0.094-1.363l2.167,0.055l0.037-0.853l-2.316-0.058  c-0.229-1.559-0.618-2.993-1.137-4.245l2.971-1.492l-0.491-0.826L47.469,47.4c-1.239-2.477-3.019-4.043-5-4.043  c-0.167,0-0.332,0.031-0.496,0.052c0.021,0.075,0.054,0.143,0.061,0.229c0.004,0.021,0.02,0.046,0.02,0.068  c0,0.014-0.01,0.026-0.01,0.04c0.021,0.65-0.32,1.509-0.948,2.351c0.302-0.062,0.606-0.109,0.923-0.109  c1.535,0,2.938,0.804,4.02,2.132l-3.236,1.625l0.493,0.827l3.309-1.661c0.639,1.011,1.116,2.232,1.376,3.583l-4.517-0.113  l-0.038,0.852l4.687,0.118c0.052,0.451,0.082,0.916,0.087,1.389H26.316c0.004-0.469,0.033-0.928,0.086-1.377l5.16-0.127  l-0.039-0.853l-4.99,0.124c0.229-1.194,0.622-2.289,1.151-3.228l3.086,1.293l0.553-0.745l-3.148-1.319  c1.116-1.557,2.64-2.52,4.322-2.52c0.309,0,0.61,0.044,0.906,0.106c-0.741-0.999-1.07-2.024-0.889-2.688  c-0.157-0.017-0.312-0.048-0.471-0.048c-2.122,0-4.015,1.782-5.257,4.571l-3.503-1.468l-0.552,0.746l3.713,1.557  c-0.425,1.134-0.741,2.406-0.94,3.771l-1.841,0.045l0.037,0.853l1.694-0.042c-0.046,0.441-0.072,0.894-0.092,1.351h-10.15  C15.391,40.193,25.19,28.49,37.256,28.49z"/>
</svg>