<svg xmlns="http://www.w3.org/2000/svg" xmlns:xlink="http://www.w3.org/1999/xlink" version="1.1" x="0px" y="0px" width="100px" height="100px" viewBox="0 0 100 100" enable-background="new 0 0 100 100" xml:space="preserve">
<g id="Captions">
</g>
<g id="Your_Icon">
	<path fill-rule="evenodd" clip-rule="evenodd" d="M72.053,54.848v-1.545c0-0.746-0.604-1.352-1.354-1.352   c-0.744,0-1.351,0.605-1.351,1.352v1.545H72.053z"/>
	<rect x="69.349" y="57.547" fill-rule="evenodd" clip-rule="evenodd" width="2.704" height="3.125"/>
	<rect x="69.349" y="63.371" fill-rule="evenodd" clip-rule="evenodd" width="2.704" height="3.125"/>
	<path fill-rule="evenodd" clip-rule="evenodd" d="M69.349,69.193v15.168c0,0.75,0.606,1.355,1.351,1.355   c0.75,0,1.354-0.605,1.354-1.355V69.193H69.349z"/>
	<path fill-rule="evenodd" clip-rule="evenodd" d="M73.438,44.394V31.062l-0.033-1.639h-0.058   C72.504,17.366,62.426,7.815,50.155,7.815c-12.819,0-23.248,10.428-23.248,23.247l0.027,13.332h-5.413v43.508   c0,2.391,1.948,4.338,4.34,4.338h48.622c2.392,0,4.337-1.947,4.337-4.338V44.394H73.438z M50.155,11.093   c11.013,0,19.974,8.958,19.974,19.969l0.031,13.216h-4.825l0.004-13.216c0-8.349-6.813-15.141-15.188-15.141   c-8.373,0-15.184,6.792-15.184,15.141l0.076,13.216h-4.825V31.062l-0.018-0.823C30.635,19.608,39.419,11.093,50.155,11.093z    M38.279,30.156c0.466-6.119,5.614-10.958,11.873-10.958c3.183,0,6.173,1.234,8.423,3.477c2.248,2.24,3.484,5.219,3.481,8.387   v13.332H38.322V31.062L38.279,30.156z M75.545,87.902c0,0.588-0.475,1.059-1.061,1.059H25.862c-0.585,0-1.062-0.471-1.062-1.059   V69.193h30.381v-2.697H24.8v-3.125h30.381v-2.699H24.8v-3.125h30.381v-2.699H24.8v-7.176h50.745V87.902z"/>
</g>
</svg>